# xmcd CD database file
#
# Track frame offsets:
#	150
#	34616
#	61708
#	112835
#	138236
#	176966
#	209630
#	256434
#	290586
#
# Disc length: 4459 seconds
#
# Revision: 0
# Processed by: cddbd v1.5.2PL0 Copyright (c) Steve Scherf et al.
# Submitted via: CDex 1.51
#
DISCID=84116909
DTITLE=Sharrie Williams and The Wiseguys - Live at Bay car
DYEAR=2007
DGENRE=Blues
TTITLE0=Tell Mama
TTITLE1=Headed For A Big Fall
TTITLE2=How Much Can A Woman Take
TTITLE3=I Got What You Need
TTITLE4=Come Go With Me
TTITLE5=Hard Drivin' Women
TTITLE6=I'll Give You Me
TTITLE7=Just You And Me 
TTITLE8=Travellin'
EXTD=YEAR: 2007
EXTT0=
EXTT1=
EXTT2=
EXTT3=
EXTT4=
EXTT5=
EXTT6=
EXTT7=
EXTT8=
PLAYORDER=
